Simulation
nRows=15
nColumns=15
endheader
time  TH_x TH_y TH_z SC_y  SC_z  SC_x  AC_y  AC_z  AC_x  GH_y  GH_z  GH_yy  EL_x  PS_y
2.4010000000000002  0.000000  0.000000  0.000000  -40.235558395420746  9.726778061345353  -3.2295801269866304  49.43327694071817  13.57578827213492  5.05746113293522  8.03203202237482  22.95614554107573  11.129038626201778  11.268921920038819  120.000000
2.4490200000000004  0.000000  0.000000  0.000000  -38.69517470598765  8.882626043142505  -3.985087093754918  49.561099318877424  13.043122084172673  4.599655305856741  8.391222553872682  19.413204609470014  15.03563664347049  11.579087824032257  120.000000
2.49704  0.000000  0.000000  0.000000  -37.18484721501646  8.046996073826307  -4.662997136978641  49.78261724551232  12.59945274925423  4.252912329251375  7.980949834500262  16.27827915557629  19.848433653603024  12.128588626671847  120.000000
2.5450600000000003  0.000000  0.000000  0.000000  -35.778087360531366  7.246206904171375  -5.238930850403676  50.1150869891972  12.263590932607014  4.0199465072547875  6.791150187750204  13.582365414074122  25.3710695765846  12.928312271684636  120.000000
2.5930800000000005  0.000000  0.000000  0.000000  -34.543960975901406  6.505490633033325  -5.691590642191775  50.561388350556605  12.048271360787215  3.8916856380322193  5.077350349489115  11.317207908802652  31.141052105611355  13.914925138454755  120.000000
2.6411000000000002  0.000000  0.000000  0.000000  -33.54016107606673  5.849816632316295  -6.007393044020187  51.10572016114716  11.960114364689579  3.8493391612251107  3.4282230645038596  9.433857478177394  36.38593498982413  14.982402439473105  120.000000
2.6891200000000004  0.000000  0.000000  0.000000  -32.80454788902393  5.301443913156944  -6.1835674578165  51.71212035143601  11.997643196433241  3.8695328670719817  2.712711392374148  7.858926686439259  40.102334989767435  16.018585557121277  120.000000
2.7371400000000006  0.000000  0.000000  0.000000  -32.344199136390614  4.8748346937067435  -6.229185044604784  52.33038174461556  12.148309939173325  3.9299481406954575  3.937425507306727  6.528716092175236  41.220780025049386  16.93138348798184  120.000000
2.7851600000000003  0.000000  0.000000  0.000000  -32.12861730041639  4.574823732013515  -6.164256050760365  52.91263948330988  12.388708387072743  4.010319644557074  8.09675761615559  5.423368258345563  38.764698108412674  17.661670116701636  120.000000
2.8331800000000005  0.000000  0.000000  0.000000  -32.09775966445812  4.395792101753672  -6.014854281678592  53.42412500561618  12.68720321347055  4.094851182940747  15.89611945931092  4.580094974421115  32.11397067665774  18.180144008682188  120.000000
2.8812000000000006  0.000000  0.000000  0.000000  -32.180796597822656  4.323784257385726  -5.809316528933203  53.84715818063245  13.008567345213818  4.174699596495376  26.985642951911682  4.068243754791618  21.742490471810612  18.479194341219557  120.000000
2.9292200000000004  0.000000  0.000000  0.000000  -32.31446467439671  4.337017936569118  -5.5761520991308755  54.17788234317743  13.31771501419815  4.247476224128806  39.107410504860496  3.921632287330398  10.04089637147235  18.568889134397462  120.000000
2.9772400000000006  0.000000  0.000000  0.000000  -32.45455608141071  4.409716230505414  -5.344649368244085  54.4182522548295  13.58432858112489  4.314913998255728  49.18841538092979  4.083051408508029  0.20019534043572426  18.478230618745133  120.000000
3.0252600000000003  0.000000  0.000000  0.000000  -32.577253268634244  4.517003915383336  -5.152583791148256  54.568394860136024  13.793077847915761  4.38418116435293  55.65319593562614  4.441459868601812  -6.113418976822187  18.253954038620623  120.000000
3.0732800000000005  0.000000  0.000000  0.000000  -32.664205885404776  4.634452372118292  -5.039885834026465  54.63525034086375  13.936294711425171  4.464039043086219  58.757370357047634  4.912222215705781  -9.093261738514073  17.95659823696583  120.000000
